<?xml version="1.0" encoding="utf-8" standalone="no"?>
<!DOCTYPE svg PUBLIC "-//W3C//DTD SVG 1.1//EN"
  "http://www.w3.org/Graphics/SVG/1.1/DTD/svg11.dtd">
<svg xmlns:xlink="http://www.w3.org/1999/xlink" width="720pt" height="432pt" viewBox="0 0 720 432" xmlns="http://www.w3.org/2000/svg" version="1.1">
 <metadata>
  <rdf:RDF xmlns:dc="http://purl.org/dc/elements/1.1/" xmlns:cc="http://creativecommons.org/ns#" xmlns:rdf="http://www.w3.org/1999/02/22-rdf-syntax-ns#">
   <cc:Work>
    <dc:type rdf:resource="http://purl.org/dc/dcmitype/StillImage"/>
    <dc:date>2024-05-16T21:48:33.938272</dc:date>
    <dc:format>image/svg+xml</dc:format>
    <dc:creator>
     <cc:Agent>
      <dc:title>Matplotlib v3.8.4, https://matplotlib.org/</dc:title>
     </cc:Agent>
    </dc:creator>
   </cc:Work>
  </rdf:RDF>
 </metadata>
 <defs>
  <style type="text/css">*{stroke-linejoin: round; stroke-linecap: butt}</style>
 </defs>
 <g id="figure_1">
  <g id="patch_1">
   <path d="M 0 432 
L 720 432 
L 720 0 
L 0 0 
z
" style="fill: #ffffff"/>
  </g>
  <g id="axes_1">
   <g id="patch_2">
    <path d="M 73.02125 277.374838 
L 709.2 277.374838 
L 709.2 26.88 
L 73.02125 26.88 
z
" style="fill: #ffffff"/>
   </g>
   <g id="patch_3">
    <path d="M 101.938466 277.374838 
L 149.150247 277.374838 
L 149.150247 38.808326 
L 101.938466 38.808326 
z
" clip-path="url(#pf32d049e65)" style="fill: #440154"/>
   </g>
   <g id="patch_4">
    <path d="M 160.953192 277.374838 
L 208.164973 277.374838 
L 208.164973 113.360361 
L 160.953192 113.360361 
z
" clip-path="url(#pf32d049e65)" style="fill: #482878"/>
   </g>
   <g id="patch_5">
    <path d="M 219.967919 277.374838 
L 267.1797 277.374838 
L 267.1797 128.270768 
L 219.967919 128.270768 
z
" clip-path="url(#pf32d049e65)" style="fill: #3e4989"/>
   </g>
   <g id="patch_6">
    <path d="M 278.982645 277.374838 
L 326.194426 277.374838 
L 326.194426 135.725971 
L 278.982645 135.725971 
z
" clip-path="url(#pf32d049e65)" style="fill: #31688e"/>
   </g>
   <g id="patch_7">
    <path d="M 337.997371 277.374838 
L 385.209152 277.374838 
L 385.209152 150.636378 
L 337.997371 150.636378 
z
" clip-path="url(#pf32d049e65)" style="fill: #26828e"/>
   </g>
   <g id="patch_8">
    <path d="M 397.012098 277.374838 
L 444.223879 277.374838 
L 444.223879 170.516921 
L 397.012098 170.516921 
z
" clip-path="url(#pf32d049e65)" style="fill: #1f9e89"/>
   </g>
   <g id="patch_9">
    <path d="M 456.026824 277.374838 
L 503.238605 277.374838 
L 503.238605 187.912396 
L 456.026824 187.912396 
z
" clip-path="url(#pf32d049e65)" style="fill: #35b779"/>
   </g>
   <g id="patch_10">
    <path d="M 515.04155 277.374838 
L 562.253331 277.374838 
L 562.253331 187.912396 
L 515.04155 187.912396 
z
" clip-path="url(#pf32d049e65)" style="fill: #6ece58"/>
   </g>
   <g id="patch_11">
    <path d="M 574.056277 277.374838 
L 621.268058 277.374838 
L 621.268058 187.912396 
L 574.056277 187.912396 
z
" clip-path="url(#pf32d049e65)" style="fill: #b5de2b"/>
   </g>
   <g id="patch_12">
    <path d="M 633.071003 277.374838 
L 680.282784 277.374838 
L 680.282784 202.822803 
L 633.071003 202.822803 
z
" clip-path="url(#pf32d049e65)" style="fill: #fde725"/>
   </g>
   <g id="matplotlib.axis_1">
    <g id="xtick_1">
     <g id="line2d_1">
      <defs>
       <path id="m87b8f58866" d="M 0 0 
L 0 3.5 
" style="stroke: #000000; stroke-width: 0.8"/>
      </defs>
      <g>
       <use xlink:href="#m87b8f58866" x="125.544356" y="277.374838" style="stroke: #000000; stroke-width: 0.8"/>
      </g>
     </g>
     <g id="text_1">
      <!-- Luciano Sanchez Ramos -->
      <g transform="translate(38.568013 375.253527) rotate(-45) scale(0.1 -0.1)">
       <defs>
        <path id="DejaVuSans-4c" d="M 628 4666 
L 1259 4666 
L 1259 531 
L 3531 531 
L 3531 0 
L 628 0 
L 628 4666 
z
" transform="scale(0.015625)"/>
        <path id="DejaVuSans-75" d="M 544 1381 
L 544 3500 
L 1119 3500 
L 1119 1403 
Q 1119 906 1312 657 
Q 1506 409 1894 409 
Q 2359 409 2629 706 
Q 2900 1003 2900 1516 
L 2900 3500 
L 3475 3500 
L 3475 0 
L 2900 0 
L 2900 538 
Q 2691 219 2414 64 
Q 2138 -91 1772 -91 
Q 1169 -91 856 284 
Q 544 659 544 1381 
z
M 1991 3584 
L 1991 3584 
z
" transform="scale(0.015625)"/>
        <path id="DejaVuSans-63" d="M 3122 3366 
L 3122 2828 
Q 2878 2963 2633 3030 
Q 2388 3097 2138 3097 
Q 1578 3097 1268 2742 
Q 959 2388 959 1747 
Q 959 1106 1268 751 
Q 1578 397 2138 397 
Q 2388 397 2633 464 
Q 2878 531 3122 666 
L 3122 134 
Q 2881 22 2623 -34 
Q 2366 -91 2075 -91 
Q 1284 -91 818 406 
Q 353 903 353 1747 
Q 353 2603 823 3093 
Q 1294 3584 2113 3584 
Q 2378 3584 2631 3529 
Q 2884 3475 3122 3366 
z
" transform="scale(0.015625)"/>
        <path id="DejaVuSans-69" d="M 603 3500 
L 1178 3500 
L 1178 0 
L 603 0 
L 603 3500 
z
M 603 4863 
L 1178 4863 
L 1178 4134 
L 603 4134 
L 603 4863 
z
" transform="scale(0.015625)"/>
        <path id="DejaVuSans-61" d="M 2194 1759 
Q 1497 1759 1228 1600 
Q 959 1441 959 1056 
Q 959 750 1161 570 
Q 1363 391 1709 391 
Q 2188 391 2477 730 
Q 2766 1069 2766 1631 
L 2766 1759 
L 2194 1759 
z
M 3341 1997 
L 3341 0 
L 2766 0 
L 2766 531 
Q 2569 213 2275 61 
Q 1981 -91 1556 -91 
Q 1019 -91 701 211 
Q 384 513 384 1019 
Q 384 1609 779 1909 
Q 1175 2209 1959 2209 
L 2766 2209 
L 2766 2266 
Q 2766 2663 2505 2880 
Q 2244 3097 1772 3097 
Q 1472 3097 1187 3025 
Q 903 2953 641 2809 
L 641 3341 
Q 956 3463 1253 3523 
Q 1550 3584 1831 3584 
Q 2591 3584 2966 3190 
Q 3341 2797 3341 1997 
z
" transform="scale(0.015625)"/>
        <path id="DejaVuSans-6e" d="M 3513 2113 
L 3513 0 
L 2938 0 
L 2938 2094 
Q 2938 2591 2744 2837 
Q 2550 3084 2163 3084 
Q 1697 3084 1428 2787 
Q 1159 2491 1159 1978 
L 1159 0 
L 581 0 
L 581 3500 
L 1159 3500 
L 1159 2956 
Q 1366 3272 1645 3428 
Q 1925 3584 2291 3584 
Q 2894 3584 3203 3211 
Q 3513 2838 3513 2113 
z
" transform="scale(0.015625)"/>
        <path id="DejaVuSans-6f" d="M 1959 3097 
Q 1497 3097 1228 2736 
Q 959 2375 959 1747 
Q 959 1119 1226 758 
Q 1494 397 1959 397 
Q 2419 397 2687 759 
Q 2956 1122 2956 1747 
Q 2956 2369 2687 2733 
Q 2419 3097 1959 3097 
z
M 1959 3584 
Q 2709 3584 3137 3096 
Q 3566 2609 3566 1747 
Q 3566 888 3137 398 
Q 2709 -91 1959 -91 
Q 1206 -91 779 398 
Q 353 888 353 1747 
Q 353 2609 779 3096 
Q 1206 3584 1959 3584 
z
" transform="scale(0.015625)"/>
        <path id="DejaVuSans-20" transform="scale(0.015625)"/>
        <path id="DejaVuSans-53" d="M 3425 4513 
L 3425 3897 
Q 3066 4069 2747 4153 
Q 2428 4238 2131 4238 
Q 1616 4238 1336 4038 
Q 1056 3838 1056 3469 
Q 1056 3159 1242 3001 
Q 1428 2844 1947 2747 
L 2328 2669 
Q 3034 2534 3370 2195 
Q 3706 1856 3706 1288 
Q 3706 609 3251 259 
Q 2797 -91 1919 -91 
Q 1588 -91 1214 -16 
Q 841 59 441 206 
L 441 856 
Q 825 641 1194 531 
Q 1563 422 1919 422 
Q 2459 422 2753 634 
Q 3047 847 3047 1241 
Q 3047 1584 2836 1778 
Q 2625 1972 2144 2069 
L 1759 2144 
Q 1053 2284 737 2584 
Q 422 2884 422 3419 
Q 422 4038 858 4394 
Q 1294 4750 2059 4750 
Q 2388 4750 2728 4690 
Q 3069 4631 3425 4513 
z
" transform="scale(0.015625)"/>
        <path id="DejaVuSans-68" d="M 3513 2113 
L 3513 0 
L 2938 0 
L 2938 2094 
Q 2938 2591 2744 2837 
Q 2550 3084 2163 3084 
Q 1697 3084 1428 2787 
Q 1159 2491 1159 1978 
L 1159 0 
L 581 0 
L 581 4863 
L 1159 4863 
L 1159 2956 
Q 1366 3272 1645 3428 
Q 1925 3584 2291 3584 
Q 2894 3584 3203 3211 
Q 3513 2838 3513 2113 
z
" transform="scale(0.015625)"/>
        <path id="DejaVuSans-65" d="M 3597 1894 
L 3597 1613 
L 953 1613 
Q 991 1019 1311 708 
Q 1631 397 2203 397 
Q 2534 397 2845 478 
Q 3156 559 3463 722 
L 3463 178 
Q 3153 47 2828 -22 
Q 2503 -91 2169 -91 
Q 1331 -91 842 396 
Q 353 884 353 1716 
Q 353 2575 817 3079 
Q 1281 3584 2069 3584 
Q 2775 3584 3186 3129 
Q 3597 2675 3597 1894 
z
M 3022 2063 
Q 3016 2534 2758 2815 
Q 2500 3097 2075 3097 
Q 1594 3097 1305 2825 
Q 1016 2553 972 2059 
L 3022 2063 
z
" transform="scale(0.015625)"/>
        <path id="DejaVuSans-7a" d="M 353 3500 
L 3084 3500 
L 3084 2975 
L 922 459 
L 3084 459 
L 3084 0 
L 275 0 
L 275 525 
L 2438 3041 
L 353 3041 
L 353 3500 
z
" transform="scale(0.015625)"/>
        <path id="DejaVuSans-52" d="M 2841 2188 
Q 3044 2119 3236 1894 
Q 3428 1669 3622 1275 
L 4263 0 
L 3584 0 
L 2988 1197 
Q 2756 1666 2539 1819 
Q 2322 1972 1947 1972 
L 1259 1972 
L 1259 0 
L 628 0 
L 628 4666 
L 2053 4666 
Q 2853 4666 3247 4331 
Q 3641 3997 3641 3322 
Q 3641 2881 3436 2590 
Q 3231 2300 2841 2188 
z
M 1259 4147 
L 1259 2491 
L 2053 2491 
Q 2509 2491 2742 2702 
Q 2975 2913 2975 3322 
Q 2975 3731 2742 3939 
Q 2509 4147 2053 4147 
L 1259 4147 
z
" transform="scale(0.015625)"/>
        <path id="DejaVuSans-6d" d="M 3328 2828 
Q 3544 3216 3844 3400 
Q 4144 3584 4550 3584 
Q 5097 3584 5394 3201 
Q 5691 2819 5691 2113 
L 5691 0 
L 5113 0 
L 5113 2094 
Q 5113 2597 4934 2840 
Q 4756 3084 4391 3084 
Q 3944 3084 3684 2787 
Q 3425 2491 3425 1978 
L 3425 0 
L 2847 0 
L 2847 2094 
Q 2847 2600 2669 2842 
Q 2491 3084 2119 3084 
Q 1678 3084 1418 2786 
Q 1159 2488 1159 1978 
L 1159 0 
L 581 0 
L 581 3500 
L 1159 3500 
L 1159 2956 
Q 1356 3278 1631 3431 
Q 1906 3584 2284 3584 
Q 2666 3584 2933 3390 
Q 3200 3197 3328 2828 
z
" transform="scale(0.015625)"/>
        <path id="DejaVuSans-73" d="M 2834 3397 
L 2834 2853 
Q 2591 2978 2328 3040 
Q 2066 3103 1784 3103 
Q 1356 3103 1142 2972 
Q 928 2841 928 2578 
Q 928 2378 1081 2264 
Q 1234 2150 1697 2047 
L 1894 2003 
Q 2506 1872 2764 1633 
Q 3022 1394 3022 966 
Q 3022 478 2636 193 
Q 2250 -91 1575 -91 
Q 1294 -91 989 -36 
Q 684 19 347 128 
L 347 722 
Q 666 556 975 473 
Q 1284 391 1588 391 
Q 1994 391 2212 530 
Q 2431 669 2431 922 
Q 2431 1156 2273 1281 
Q 2116 1406 1581 1522 
L 1381 1569 
Q 847 1681 609 1914 
Q 372 2147 372 2553 
Q 372 3047 722 3315 
Q 1072 3584 1716 3584 
Q 2034 3584 2315 3537 
Q 2597 3491 2834 3397 
z
" transform="scale(0.015625)"/>
       </defs>
       <use xlink:href="#DejaVuSans-4c"/>
       <use xlink:href="#DejaVuSans-75" x="53.962891"/>
       <use xlink:href="#DejaVuSans-63" x="117.341797"/>
       <use xlink:href="#DejaVuSans-69" x="172.322266"/>
       <use xlink:href="#DejaVuSans-61" x="200.105469"/>
       <use xlink:href="#DejaVuSans-6e" x="261.384766"/>
       <use xlink:href="#DejaVuSans-6f" x="324.763672"/>
       <use xlink:href="#DejaVuSans-20" x="385.945312"/>
       <use xlink:href="#DejaVuSans-53" x="417.732422"/>
       <use xlink:href="#DejaVuSans-61" x="481.208984"/>
       <use xlink:href="#DejaVuSans-6e" x="542.488281"/>
       <use xlink:href="#DejaVuSans-63" x="605.867188"/>
       <use xlink:href="#DejaVuSans-68" x="660.847656"/>
       <use xlink:href="#DejaVuSans-65" x="724.226562"/>
       <use xlink:href="#DejaVuSans-7a" x="785.75"/>
       <use xlink:href="#DejaVuSans-20" x="838.240234"/>
       <use xlink:href="#DejaVuSans-52" x="870.027344"/>
       <use xlink:href="#DejaVuSans-61" x="937.259766"/>
       <use xlink:href="#DejaVuSans-6d" x="998.539062"/>
       <use xlink:href="#DejaVuSans-6f" x="1095.951172"/>
       <use xlink:href="#DejaVuSans-73" x="1157.132812"/>
      </g>
     </g>
    </g>
    <g id="xtick_2">
     <g id="line2d_2">
      <g>
       <use xlink:href="#m87b8f58866" x="184.559083" y="277.374838" style="stroke: #000000; stroke-width: 0.8"/>
      </g>
     </g>
     <g id="text_2">
      <!-- Pablo Javier Tuya Gonzalez -->
      <g transform="translate(88.85439 383.981877) rotate(-45) scale(0.1 -0.1)">
       <defs>
        <path id="DejaVuSans-50" d="M 1259 4147 
L 1259 2394 
L 2053 2394 
Q 2494 2394 2734 2622 
Q 2975 2850 2975 3272 
Q 2975 3691 2734 3919 
Q 2494 4147 2053 4147 
L 1259 4147 
z
M 628 4666 
L 2053 4666 
Q 2838 4666 3239 4311 
Q 3641 3956 3641 3272 
Q 3641 2581 3239 2228 
Q 2838 1875 2053 1875 
L 1259 1875 
L 1259 0 
L 628 0 
L 628 4666 
z
" transform="scale(0.015625)"/>
        <path id="DejaVuSans-62" d="M 3116 1747 
Q 3116 2381 2855 2742 
Q 2594 3103 2138 3103 
Q 1681 3103 1420 2742 
Q 1159 2381 1159 1747 
Q 1159 1113 1420 752 
Q 1681 391 2138 391 
Q 2594 391 2855 752 
Q 3116 1113 3116 1747 
z
M 1159 2969 
Q 1341 3281 1617 3432 
Q 1894 3584 2278 3584 
Q 2916 3584 3314 3078 
Q 3713 2572 3713 1747 
Q 3713 922 3314 415 
Q 2916 -91 2278 -91 
Q 1894 -91 1617 61 
Q 1341 213 1159 525 
L 1159 0 
L 581 0 
L 581 4863 
L 1159 4863 
L 1159 2969 
z
" transform="scale(0.015625)"/>
        <path id="DejaVuSans-6c" d="M 603 4863 
L 1178 4863 
L 1178 0 
L 603 0 
L 603 4863 
z
" transform="scale(0.015625)"/>
        <path id="DejaVuSans-4a" d="M 628 4666 
L 1259 4666 
L 1259 325 
Q 1259 -519 939 -900 
Q 619 -1281 -91 -1281 
L -331 -1281 
L -331 -750 
L -134 -750 
Q 284 -750 456 -515 
Q 628 -281 628 325 
L 628 4666 
z
" transform="scale(0.015625)"/>
        <path id="DejaVuSans-76" d="M 191 3500 
L 800 3500 
L 1894 563 
L 2988 3500 
L 3597 3500 
L 2284 0 
L 1503 0 
L 191 3500 
z
" transform="scale(0.015625)"/>
        <path id="DejaVuSans-72" d="M 2631 2963 
Q 2534 3019 2420 3045 
Q 2306 3072 2169 3072 
Q 1681 3072 1420 2755 
Q 1159 2438 1159 1844 
L 1159 0 
L 581 0 
L 581 3500 
L 1159 3500 
L 1159 2956 
Q 1341 3275 1631 3429 
Q 1922 3584 2338 3584 
Q 2397 3584 2469 3576 
Q 2541 3569 2628 3553 
L 2631 2963 
z
" transform="scale(0.015625)"/>
        <path id="DejaVuSans-54" d="M -19 4666 
L 3928 4666 
L 3928 4134 
L 2272 4134 
L 2272 0 
L 1638 0 
L 1638 4134 
L -19 4134 
L -19 4666 
z
" transform="scale(0.015625)"/>
        <path id="DejaVuSans-79" d="M 2059 -325 
Q 1816 -950 1584 -1140 
Q 1353 -1331 966 -1331 
L 506 -1331 
L 506 -850 
L 844 -850 
Q 1081 -850 1212 -737 
Q 1344 -625 1503 -206 
L 1606 56 
L 191 3500 
L 800 3500 
L 1894 763 
L 2988 3500 
L 3597 3500 
L 2059 -325 
z
" transform="scale(0.015625)"/>
        <path id="DejaVuSans-47" d="M 3809 666 
L 3809 1919 
L 2778 1919 
L 2778 2438 
L 4434 2438 
L 4434 434 
Q 4069 175 3628 42 
Q 3188 -91 2688 -91 
Q 1594 -91 976 548 
Q 359 1188 359 2328 
Q 359 3472 976 4111 
Q 1594 4750 2688 4750 
Q 3144 4750 3555 4637 
Q 3966 4525 4313 4306 
L 4313 3634 
Q 3963 3931 3569 4081 
Q 3175 4231 2741 4231 
Q 1884 4231 1454 3753 
Q 1025 3275 1025 2328 
Q 1025 1384 1454 906 
Q 1884 428 2741 428 
Q 3075 428 3337 486 
Q 3600 544 3809 666 
z
" transform="scale(0.015625)"/>
       </defs>
       <use xlink:href="#DejaVuSans-50"/>
       <use xlink:href="#DejaVuSans-61" x="55.802734"/>
       <use xlink:href="#DejaVuSans-62" x="117.082031"/>
       <use xlink:href="#DejaVuSans-6c" x="180.558594"/>
       <use xlink:href="#DejaVuSans-6f" x="208.341797"/>
       <use xlink:href="#DejaVuSans-20" x="269.523438"/>
       <use xlink:href="#DejaVuSans-4a" x="301.310547"/>
       <use xlink:href="#DejaVuSans-61" x="330.802734"/>
       <use xlink:href="#DejaVuSans-76" x="392.082031"/>
       <use xlink:href="#DejaVuSans-69" x="451.261719"/>
       <use xlink:href="#DejaVuSans-65" x="479.044922"/>
       <use xlink:href="#DejaVuSans-72" x="540.568359"/>
       <use xlink:href="#DejaVuSans-20" x="581.681641"/>
       <use xlink:href="#DejaVuSans-54" x="613.46875"/>
       <use xlink:href="#DejaVuSans-75" x="659.427734"/>
       <use xlink:href="#DejaVuSans-79" x="722.806641"/>
       <use xlink:href="#DejaVuSans-61" x="781.986328"/>
       <use xlink:href="#DejaVuSans-20" x="843.265625"/>
       <use xlink:href="#DejaVuSans-47" x="875.052734"/>
       <use xlink:href="#DejaVuSans-6f" x="952.542969"/>
       <use xlink:href="#DejaVuSans-6e" x="1013.724609"/>
       <use xlink:href="#DejaVuSans-7a" x="1077.103516"/>
       <use xlink:href="#DejaVuSans-61" x="1129.59375"/>
       <use xlink:href="#DejaVuSans-6c" x="1190.873047"/>
       <use xlink:href="#DejaVuSans-65" x="1218.65625"/>
       <use xlink:href="#DejaVuSans-7a" x="1280.179688"/>
      </g>
     </g>
    </g>
    <g id="xtick_3">
     <g id="line2d_3">
      <g>
       <use xlink:href="#m87b8f58866" x="243.573809" y="277.374838" style="stroke: #000000; stroke-width: 0.8"/>
      </g>
     </g>
     <g id="text_3">
      <!-- Francisco Ortin Soler -->
      <g transform="translate(168.853615 362.997378) rotate(-45) scale(0.1 -0.1)">
       <defs>
        <path id="DejaVuSans-46" d="M 628 4666 
L 3309 4666 
L 3309 4134 
L 1259 4134 
L 1259 2759 
L 3109 2759 
L 3109 2228 
L 1259 2228 
L 1259 0 
L 628 0 
L 628 4666 
z
" transform="scale(0.015625)"/>
        <path id="DejaVuSans-4f" d="M 2522 4238 
Q 1834 4238 1429 3725 
Q 1025 3213 1025 2328 
Q 1025 1447 1429 934 
Q 1834 422 2522 422 
Q 3209 422 3611 934 
Q 4013 1447 4013 2328 
Q 4013 3213 3611 3725 
Q 3209 4238 2522 4238 
z
M 2522 4750 
Q 3503 4750 4090 4092 
Q 4678 3434 4678 2328 
Q 4678 1225 4090 567 
Q 3503 -91 2522 -91 
Q 1538 -91 948 565 
Q 359 1222 359 2328 
Q 359 3434 948 4092 
Q 1538 4750 2522 4750 
z
" transform="scale(0.015625)"/>
        <path id="DejaVuSans-74" d="M 1172 4494 
L 1172 3500 
L 2356 3500 
L 2356 3053 
L 1172 3053 
L 1172 1153 
Q 1172 725 1289 603 
Q 1406 481 1766 481 
L 2356 481 
L 2356 0 
L 1766 0 
Q 1100 0 847 248 
Q 594 497 594 1153 
L 594 3053 
L 172 3053 
L 172 3500 
L 594 3500 
L 594 4494 
L 1172 4494 
z
" transform="scale(0.015625)"/>
       </defs>
       <use xlink:href="#DejaVuSans-46"/>
       <use xlink:href="#DejaVuSans-72" x="50.269531"/>
       <use xlink:href="#DejaVuSans-61" x="91.382812"/>
       <use xlink:href="#DejaVuSans-6e" x="152.662109"/>
       <use xlink:href="#DejaVuSans-63" x="216.041016"/>
       <use xlink:href="#DejaVuSans-69" x="271.021484"/>
       <use xlink:href="#DejaVuSans-73" x="298.804688"/>
       <use xlink:href="#DejaVuSans-63" x="350.904297"/>
       <use xlink:href="#DejaVuSans-6f" x="405.884766"/>
       <use xlink:href="#DejaVuSans-20" x="467.066406"/>
       <use xlink:href="#DejaVuSans-4f" x="498.853516"/>
       <use xlink:href="#DejaVuSans-72" x="577.564453"/>
       <use xlink:href="#DejaVuSans-74" x="618.677734"/>
       <use xlink:href="#DejaVuSans-69" x="657.886719"/>
       <use xlink:href="#DejaVuSans-6e" x="685.669922"/>
       <use xlink:href="#DejaVuSans-20" x="749.048828"/>
       <use xlink:href="#DejaVuSans-53" x="780.835938"/>
       <use xlink:href="#DejaVuSans-6f" x="844.3125"/>
       <use xlink:href="#DejaVuSans-6c" x="905.494141"/>
       <use xlink:href="#DejaVuSans-65" x="933.277344"/>
       <use xlink:href="#DejaVuSans-72" x="994.800781"/>
      </g>
     </g>
    </g>
    <g id="xtick_4">
     <g id="line2d_4">
      <g>
       <use xlink:href="#m87b8f58866" x="302.588535" y="277.374838" style="stroke: #000000; stroke-width: 0.8"/>
      </g>
     </g>
     <g id="text_4">
      <!-- Vicente Garcia Diaz -->
      <g transform="translate(231.938624 358.927095) rotate(-45) scale(0.1 -0.1)">
       <defs>
        <path id="DejaVuSans-56" d="M 1831 0 
L 50 4666 
L 709 4666 
L 2188 738 
L 3669 4666 
L 4325 4666 
L 2547 0 
L 1831 0 
z
" transform="scale(0.015625)"/>
        <path id="DejaVuSans-44" d="M 1259 4147 
L 1259 519 
L 2022 519 
Q 2988 519 3436 956 
Q 3884 1394 3884 2338 
Q 3884 3275 3436 3711 
Q 2988 4147 2022 4147 
L 1259 4147 
z
M 628 4666 
L 1925 4666 
Q 3281 4666 3915 4102 
Q 4550 3538 4550 2338 
Q 4550 1131 3912 565 
Q 3275 0 1925 0 
L 628 0 
L 628 4666 
z
" transform="scale(0.015625)"/>
       </defs>
       <use xlink:href="#DejaVuSans-56"/>
       <use xlink:href="#DejaVuSans-69" x="66.158203"/>
       <use xlink:href="#DejaVuSans-63" x="93.941406"/>
       <use xlink:href="#DejaVuSans-65" x="148.921875"/>
       <use xlink:href="#DejaVuSans-6e" x="210.445312"/>
       <use xlink:href="#DejaVuSans-74" x="273.824219"/>
       <use xlink:href="#DejaVuSans-65" x="313.033203"/>
       <use xlink:href="#DejaVuSans-20" x="374.556641"/>
       <use xlink:href="#DejaVuSans-47" x="406.34375"/>
       <use xlink:href="#DejaVuSans-61" x="483.833984"/>
       <use xlink:href="#DejaVuSans-72" x="545.113281"/>
       <use xlink:href="#DejaVuSans-63" x="583.976562"/>
       <use xlink:href="#DejaVuSans-69" x="638.957031"/>
       <use xlink:href="#DejaVuSans-61" x="666.740234"/>
       <use xlink:href="#DejaVuSans-20" x="728.019531"/>
       <use xlink:href="#DejaVuSans-44" x="759.806641"/>
       <use xlink:href="#DejaVuSans-69" x="836.808594"/>
       <use xlink:href="#DejaVuSans-61" x="864.591797"/>
       <use xlink:href="#DejaVuSans-7a" x="925.871094"/>
      </g>
     </g>
    </g>
    <g id="xtick_5">
     <g id="line2d_5">
      <g>
       <use xlink:href="#m87b8f58866" x="361.603262" y="277.374838" style="stroke: #000000; stroke-width: 0.8"/>
      </g>
     </g>
     <g id="text_5">
      <!-- Jose Ramiro Varela Arias -->
      <g transform="translate(274.186081 375.694364) rotate(-45) scale(0.1 -0.1)">
       <defs>
        <path id="DejaVuSans-41" d="M 2188 4044 
L 1331 1722 
L 3047 1722 
L 2188 4044 
z
M 1831 4666 
L 2547 4666 
L 4325 0 
L 3669 0 
L 3244 1197 
L 1141 1197 
L 716 0 
L 50 0 
L 1831 4666 
z
" transform="scale(0.015625)"/>
       </defs>
       <use xlink:href="#DejaVuSans-4a"/>
       <use xlink:href="#DejaVuSans-6f" x="29.492188"/>
       <use xlink:href="#DejaVuSans-73" x="90.673828"/>
       <use xlink:href="#DejaVuSans-65" x="142.773438"/>
       <use xlink:href="#DejaVuSans-20" x="204.296875"/>
       <use xlink:href="#DejaVuSans-52" x="236.083984"/>
       <use xlink:href="#DejaVuSans-61" x="303.316406"/>
       <use xlink:href="#DejaVuSans-6d" x="364.595703"/>
       <use xlink:href="#DejaVuSans-69" x="462.007812"/>
       <use xlink:href="#DejaVuSans-72" x="489.791016"/>
       <use xlink:href="#DejaVuSans-6f" x="528.654297"/>
       <use xlink:href="#DejaVuSans-20" x="589.835938"/>
       <use xlink:href="#DejaVuSans-56" x="621.623047"/>
       <use xlink:href="#DejaVuSans-61" x="682.28125"/>
       <use xlink:href="#DejaVuSans-72" x="743.560547"/>
       <use xlink:href="#DejaVuSans-65" x="782.423828"/>
       <use xlink:href="#DejaVuSans-6c" x="843.947266"/>
       <use xlink:href="#DejaVuSans-61" x="871.730469"/>
       <use xlink:href="#DejaVuSans-20" x="933.009766"/>
       <use xlink:href="#DejaVuSans-41" x="964.796875"/>
       <use xlink:href="#DejaVuSans-72" x="1033.205078"/>
       <use xlink:href="#DejaVuSans-69" x="1074.318359"/>
       <use xlink:href="#DejaVuSans-61" x="1102.101562"/>
       <use xlink:href="#DejaVuSans-73" x="1163.380859"/>
      </g>
     </g>
    </g>
    <g id="xtick_6">
     <g id="line2d_6">
      <g>
       <use xlink:href="#m87b8f58866" x="420.617988" y="277.374838" style="stroke: #000000; stroke-width: 0.8"/>
      </g>
     </g>
     <g id="text_6">
      <!-- Daniel Fernandez Lanvin -->
      <g transform="translate(332.069437 376.825735) rotate(-45) scale(0.1 -0.1)">
       <defs>
        <path id="DejaVuSans-64" d="M 2906 2969 
L 2906 4863 
L 3481 4863 
L 3481 0 
L 2906 0 
L 2906 525 
Q 2725 213 2448 61 
Q 2172 -91 1784 -91 
Q 1150 -91 751 415 
Q 353 922 353 1747 
Q 353 2572 751 3078 
Q 1150 3584 1784 3584 
Q 2172 3584 2448 3432 
Q 2725 3281 2906 2969 
z
M 947 1747 
Q 947 1113 1208 752 
Q 1469 391 1925 391 
Q 2381 391 2643 752 
Q 2906 1113 2906 1747 
Q 2906 2381 2643 2742 
Q 2381 3103 1925 3103 
Q 1469 3103 1208 2742 
Q 947 2381 947 1747 
z
" transform="scale(0.015625)"/>
       </defs>
       <use xlink:href="#DejaVuSans-44"/>
       <use xlink:href="#DejaVuSans-61" x="77.001953"/>
       <use xlink:href="#DejaVuSans-6e" x="138.28125"/>
       <use xlink:href="#DejaVuSans-69" x="201.660156"/>
       <use xlink:href="#DejaVuSans-65" x="229.443359"/>
       <use xlink:href="#DejaVuSans-6c" x="290.966797"/>
       <use xlink:href="#DejaVuSans-20" x="318.75"/>
       <use xlink:href="#DejaVuSans-46" x="350.537109"/>
       <use xlink:href="#DejaVuSans-65" x="402.556641"/>
       <use xlink:href="#DejaVuSans-72" x="464.080078"/>
       <use xlink:href="#DejaVuSans-6e" x="503.443359"/>
       <use xlink:href="#DejaVuSans-61" x="566.822266"/>
       <use xlink:href="#DejaVuSans-6e" x="628.101562"/>
       <use xlink:href="#DejaVuSans-64" x="691.480469"/>
       <use xlink:href="#DejaVuSans-65" x="754.957031"/>
       <use xlink:href="#DejaVuSans-7a" x="816.480469"/>
       <use xlink:href="#DejaVuSans-20" x="868.970703"/>
       <use xlink:href="#DejaVuSans-4c" x="900.757812"/>
       <use xlink:href="#DejaVuSans-61" x="956.470703"/>
       <use xlink:href="#DejaVuSans-6e" x="1017.75"/>
       <use xlink:href="#DejaVuSans-76" x="1081.128906"/>
       <use xlink:href="#DejaVuSans-69" x="1140.308594"/>
       <use xlink:href="#DejaVuSans-6e" x="1168.091797"/>
      </g>
     </g>
    </g>
    <g id="xtick_7">
     <g id="line2d_7">
      <g>
       <use xlink:href="#m87b8f58866" x="479.632715" y="277.374838" style="stroke: #000000; stroke-width: 0.8"/>
      </g>
     </g>
     <g id="text_7">
      <!-- Bernardo Martin Gonzalez Rodriguez -->
      <g transform="translate(348.790339 419.119559) rotate(-45) scale(0.1 -0.1)">
       <defs>
        <path id="DejaVuSans-42" d="M 1259 2228 
L 1259 519 
L 2272 519 
Q 2781 519 3026 730 
Q 3272 941 3272 1375 
Q 3272 1813 3026 2020 
Q 2781 2228 2272 2228 
L 1259 2228 
z
M 1259 4147 
L 1259 2741 
L 2194 2741 
Q 2656 2741 2882 2914 
Q 3109 3088 3109 3444 
Q 3109 3797 2882 3972 
Q 2656 4147 2194 4147 
L 1259 4147 
z
M 628 4666 
L 2241 4666 
Q 2963 4666 3353 4366 
Q 3744 4066 3744 3513 
Q 3744 3084 3544 2831 
Q 3344 2578 2956 2516 
Q 3422 2416 3680 2098 
Q 3938 1781 3938 1306 
Q 3938 681 3513 340 
Q 3088 0 2303 0 
L 628 0 
L 628 4666 
z
" transform="scale(0.015625)"/>
        <path id="DejaVuSans-4d" d="M 628 4666 
L 1569 4666 
L 2759 1491 
L 3956 4666 
L 4897 4666 
L 4897 0 
L 4281 0 
L 4281 4097 
L 3078 897 
L 2444 897 
L 1241 4097 
L 1241 0 
L 628 0 
L 628 4666 
z
" transform="scale(0.015625)"/>
        <path id="DejaVuSans-67" d="M 2906 1791 
Q 2906 2416 2648 2759 
Q 2391 3103 1925 3103 
Q 1463 3103 1205 2759 
Q 947 2416 947 1791 
Q 947 1169 1205 825 
Q 1463 481 1925 481 
Q 2391 481 2648 825 
Q 2906 1169 2906 1791 
z
M 3481 434 
Q 3481 -459 3084 -895 
Q 2688 -1331 1869 -1331 
Q 1566 -1331 1297 -1286 
Q 1028 -1241 775 -1147 
L 775 -588 
Q 1028 -725 1275 -790 
Q 1522 -856 1778 -856 
Q 2344 -856 2625 -561 
Q 2906 -266 2906 331 
L 2906 616 
Q 2728 306 2450 153 
Q 2172 0 1784 0 
Q 1141 0 747 490 
Q 353 981 353 1791 
Q 353 2603 747 3093 
Q 1141 3584 1784 3584 
Q 2172 3584 2450 3431 
Q 2728 3278 2906 2969 
L 2906 3500 
L 3481 3500 
L 3481 434 
z
" transform="scale(0.015625)"/>
       </defs>
       <use xlink:href="#DejaVuSans-42"/>
       <use xlink:href="#DejaVuSans-65" x="68.603516"/>
       <use xlink:href="#DejaVuSans-72" x="130.126953"/>
       <use xlink:href="#DejaVuSans-6e" x="169.490234"/>
       <use xlink:href="#DejaVuSans-61" x="232.869141"/>
       <use xlink:href="#DejaVuSans-72" x="294.148438"/>
       <use xlink:href="#DejaVuSans-64" x="333.511719"/>
       <use xlink:href="#DejaVuSans-6f" x="396.988281"/>
       <use xlink:href="#DejaVuSans-20" x="458.169922"/>
       <use xlink:href="#DejaVuSans-4d" x="489.957031"/>
       <use xlink:href="#DejaVuSans-61" x="576.236328"/>
       <use xlink:href="#DejaVuSans-72" x="637.515625"/>
       <use xlink:href="#DejaVuSans-74" x="678.628906"/>
       <use xlink:href="#DejaVuSans-69" x="717.837891"/>
       <use xlink:href="#DejaVuSans-6e" x="745.621094"/>
       <use xlink:href="#DejaVuSans-20" x="809"/>
       <use xlink:href="#DejaVuSans-47" x="840.787109"/>
       <use xlink:href="#DejaVuSans-6f" x="918.277344"/>
       <use xlink:href="#DejaVuSans-6e" x="979.458984"/>
       <use xlink:href="#DejaVuSans-7a" x="1042.837891"/>
       <use xlink:href="#DejaVuSans-61" x="1095.328125"/>
       <use xlink:href="#DejaVuSans-6c" x="1156.607422"/>
       <use xlink:href="#DejaVuSans-65" x="1184.390625"/>
       <use xlink:href="#DejaVuSans-7a" x="1245.914062"/>
       <use xlink:href="#DejaVuSans-20" x="1298.404297"/>
       <use xlink:href="#DejaVuSans-52" x="1330.191406"/>
       <use xlink:href="#DejaVuSans-6f" x="1395.173828"/>
       <use xlink:href="#DejaVuSans-64" x="1456.355469"/>
       <use xlink:href="#DejaVuSans-72" x="1519.832031"/>
       <use xlink:href="#DejaVuSans-69" x="1560.945312"/>
       <use xlink:href="#DejaVuSans-67" x="1588.728516"/>
       <use xlink:href="#DejaVuSans-75" x="1652.205078"/>
       <use xlink:href="#DejaVuSans-65" x="1715.583984"/>
       <use xlink:href="#DejaVuSans-7a" x="1777.107422"/>
      </g>
     </g>
    </g>
    <g id="xtick_8">
     <g id="line2d_8">
      <g>
       <use xlink:href="#m87b8f58866" x="538.647441" y="277.374838" style="stroke: #000000; stroke-width: 0.8"/>
      </g>
     </g>
     <g id="text_8">
      <!-- Jose Emilio Labra Gayo -->
      <g transform="translate(456.086095 370.838529) rotate(-45) scale(0.1 -0.1)">
       <defs>
        <path id="DejaVuSans-45" d="M 628 4666 
L 3578 4666 
L 3578 4134 
L 1259 4134 
L 1259 2753 
L 3481 2753 
L 3481 2222 
L 1259 2222 
L 1259 531 
L 3634 531 
L 3634 0 
L 628 0 
L 628 4666 
z
" transform="scale(0.015625)"/>
       </defs>
       <use xlink:href="#DejaVuSans-4a"/>
       <use xlink:href="#DejaVuSans-6f" x="29.492188"/>
       <use xlink:href="#DejaVuSans-73" x="90.673828"/>
       <use xlink:href="#DejaVuSans-65" x="142.773438"/>
       <use xlink:href="#DejaVuSans-20" x="204.296875"/>
       <use xlink:href="#DejaVuSans-45" x="236.083984"/>
       <use xlink:href="#DejaVuSans-6d" x="299.267578"/>
       <use xlink:href="#DejaVuSans-69" x="396.679688"/>
       <use xlink:href="#DejaVuSans-6c" x="424.462891"/>
       <use xlink:href="#DejaVuSans-69" x="452.246094"/>
       <use xlink:href="#DejaVuSans-6f" x="480.029297"/>
       <use xlink:href="#DejaVuSans-20" x="541.210938"/>
       <use xlink:href="#DejaVuSans-4c" x="572.998047"/>
       <use xlink:href="#DejaVuSans-61" x="628.710938"/>
       <use xlink:href="#DejaVuSans-62" x="689.990234"/>
       <use xlink:href="#DejaVuSans-72" x="753.466797"/>
       <use xlink:href="#DejaVuSans-61" x="794.580078"/>
       <use xlink:href="#DejaVuSans-20" x="855.859375"/>
       <use xlink:href="#DejaVuSans-47" x="887.646484"/>
       <use xlink:href="#DejaVuSans-61" x="965.136719"/>
       <use xlink:href="#DejaVuSans-79" x="1026.416016"/>
       <use xlink:href="#DejaVuSans-6f" x="1085.595703"/>
      </g>
     </g>
    </g>
    <g id="xtick_9">
     <g id="line2d_9">
      <g>
       <use xlink:href="#m87b8f58866" x="597.662167" y="277.374838" style="stroke: #000000; stroke-width: 0.8"/>
      </g>
     </g>
     <g id="text_9">
      <!-- Maria Puerto Paule Ruiz -->
      <g transform="translate(513.006018 372.933333) rotate(-45) scale(0.1 -0.1)">
       <use xlink:href="#DejaVuSans-4d"/>
       <use xlink:href="#DejaVuSans-61" x="86.279297"/>
       <use xlink:href="#DejaVuSans-72" x="147.558594"/>
       <use xlink:href="#DejaVuSans-69" x="188.671875"/>
       <use xlink:href="#DejaVuSans-61" x="216.455078"/>
       <use xlink:href="#DejaVuSans-20" x="277.734375"/>
       <use xlink:href="#DejaVuSans-50" x="309.521484"/>
       <use xlink:href="#DejaVuSans-75" x="368.074219"/>
       <use xlink:href="#DejaVuSans-65" x="431.453125"/>
       <use xlink:href="#DejaVuSans-72" x="492.976562"/>
       <use xlink:href="#DejaVuSans-74" x="534.089844"/>
       <use xlink:href="#DejaVuSans-6f" x="573.298828"/>
       <use xlink:href="#DejaVuSans-20" x="634.480469"/>
       <use xlink:href="#DejaVuSans-50" x="666.267578"/>
       <use xlink:href="#DejaVuSans-61" x="722.070312"/>
       <use xlink:href="#DejaVuSans-75" x="783.349609"/>
       <use xlink:href="#DejaVuSans-6c" x="846.728516"/>
       <use xlink:href="#DejaVuSans-65" x="874.511719"/>
       <use xlink:href="#DejaVuSans-20" x="936.035156"/>
       <use xlink:href="#DejaVuSans-52" x="967.822266"/>
       <use xlink:href="#DejaVuSans-75" x="1032.804688"/>
       <use xlink:href="#DejaVuSans-69" x="1096.183594"/>
       <use xlink:href="#DejaVuSans-7a" x="1123.966797"/>
      </g>
     </g>
    </g>
    <g id="xtick_10">
     <g id="line2d_10">
      <g>
       <use xlink:href="#m87b8f58866" x="656.676894" y="277.374838" style="stroke: #000000; stroke-width: 0.8"/>
      </g>
     </g>
     <g id="text_10">
      <!-- Roberto Garcia Fernandez -->
      <g transform="translate(563.539882 381.414195) rotate(-45) scale(0.1 -0.1)">
       <use xlink:href="#DejaVuSans-52"/>
       <use xlink:href="#DejaVuSans-6f" x="64.982422"/>
       <use xlink:href="#DejaVuSans-62" x="126.164062"/>
       <use xlink:href="#DejaVuSans-65" x="189.640625"/>
       <use xlink:href="#DejaVuSans-72" x="251.164062"/>
       <use xlink:href="#DejaVuSans-74" x="292.277344"/>
       <use xlink:href="#DejaVuSans-6f" x="331.486328"/>
       <use xlink:href="#DejaVuSans-20" x="392.667969"/>
       <use xlink:href="#DejaVuSans-47" x="424.455078"/>
       <use xlink:href="#DejaVuSans-61" x="501.945312"/>
       <use xlink:href="#DejaVuSans-72" x="563.224609"/>
       <use xlink:href="#DejaVuSans-63" x="602.087891"/>
       <use xlink:href="#DejaVuSans-69" x="657.068359"/>
       <use xlink:href="#DejaVuSans-61" x="684.851562"/>
       <use xlink:href="#DejaVuSans-20" x="746.130859"/>
       <use xlink:href="#DejaVuSans-46" x="777.917969"/>
       <use xlink:href="#DejaVuSans-65" x="829.9375"/>
       <use xlink:href="#DejaVuSans-72" x="891.460938"/>
       <use xlink:href="#DejaVuSans-6e" x="930.824219"/>
       <use xlink:href="#DejaVuSans-61" x="994.203125"/>
       <use xlink:href="#DejaVuSans-6e" x="1055.482422"/>
       <use xlink:href="#DejaVuSans-64" x="1118.861328"/>
       <use xlink:href="#DejaVuSans-65" x="1182.337891"/>
       <use xlink:href="#DejaVuSans-7a" x="1243.861328"/>
      </g>
     </g>
    </g>
   </g>
   <g id="matplotlib.axis_2">
    <g id="ytick_1">
     <g id="line2d_11">
      <defs>
       <path id="m9f97d08691" d="M 0 0 
L -3.5 0 
" style="stroke: #000000; stroke-width: 0.8"/>
      </defs>
      <g>
       <use xlink:href="#m9f97d08691" x="73.02125" y="277.374838" style="stroke: #000000; stroke-width: 0.8"/>
      </g>
     </g>
     <g id="text_11">
      <!-- 0.00000 -->
      <g transform="translate(24.668125 281.174057) scale(0.1 -0.1)">
       <defs>
        <path id="DejaVuSans-30" d="M 2034 4250 
Q 1547 4250 1301 3770 
Q 1056 3291 1056 2328 
Q 1056 1369 1301 889 
Q 1547 409 2034 409 
Q 2525 409 2770 889 
Q 3016 1369 3016 2328 
Q 3016 3291 2770 3770 
Q 2525 4250 2034 4250 
z
M 2034 4750 
Q 2819 4750 3233 4129 
Q 3647 3509 3647 2328 
Q 3647 1150 3233 529 
Q 2819 -91 2034 -91 
Q 1250 -91 836 529 
Q 422 1150 422 2328 
Q 422 3509 836 4129 
Q 1250 4750 2034 4750 
z
" transform="scale(0.015625)"/>
        <path id="DejaVuSans-2e" d="M 684 794 
L 1344 794 
L 1344 0 
L 684 0 
L 684 794 
z
" transform="scale(0.015625)"/>
       </defs>
       <use xlink:href="#DejaVuSans-30"/>
       <use xlink:href="#DejaVuSans-2e" x="63.623047"/>
       <use xlink:href="#DejaVuSans-30" x="95.410156"/>
       <use xlink:href="#DejaVuSans-30" x="159.033203"/>
       <use xlink:href="#DejaVuSans-30" x="222.65625"/>
       <use xlink:href="#DejaVuSans-30" x="286.279297"/>
       <use xlink:href="#DejaVuSans-30" x="349.902344"/>
      </g>
     </g>
    </g>
    <g id="ytick_2">
     <g id="line2d_12">
      <g>
       <use xlink:href="#m9f97d08691" x="73.02125" y="242.107252" style="stroke: #000000; stroke-width: 0.8"/>
      </g>
     </g>
     <g id="text_12">
      <!-- 0.00005 -->
      <g transform="translate(24.668125 245.906471) scale(0.1 -0.1)">
       <defs>
        <path id="DejaVuSans-35" d="M 691 4666 
L 3169 4666 
L 3169 4134 
L 1269 4134 
L 1269 2991 
Q 1406 3038 1543 3061 
Q 1681 3084 1819 3084 
Q 2600 3084 3056 2656 
Q 3513 2228 3513 1497 
Q 3513 744 3044 326 
Q 2575 -91 1722 -91 
Q 1428 -91 1123 -41 
Q 819 9 494 109 
L 494 744 
Q 775 591 1075 516 
Q 1375 441 1709 441 
Q 2250 441 2565 725 
Q 2881 1009 2881 1497 
Q 2881 1984 2565 2268 
Q 2250 2553 1709 2553 
Q 1456 2553 1204 2497 
Q 953 2441 691 2322 
L 691 4666 
z
" transform="scale(0.015625)"/>
       </defs>
       <use xlink:href="#DejaVuSans-30"/>
       <use xlink:href="#DejaVuSans-2e" x="63.623047"/>
       <use xlink:href="#DejaVuSans-30" x="95.410156"/>
       <use xlink:href="#DejaVuSans-30" x="159.033203"/>
       <use xlink:href="#DejaVuSans-30" x="222.65625"/>
       <use xlink:href="#DejaVuSans-30" x="286.279297"/>
       <use xlink:href="#DejaVuSans-35" x="349.902344"/>
      </g>
     </g>
    </g>
    <g id="ytick_3">
     <g id="line2d_13">
      <g>
       <use xlink:href="#m9f97d08691" x="73.02125" y="206.839666" style="stroke: #000000; stroke-width: 0.8"/>
      </g>
     </g>
     <g id="text_13">
      <!-- 0.00010 -->
      <g transform="translate(24.668125 210.638885) scale(0.1 -0.1)">
       <defs>
        <path id="DejaVuSans-31" d="M 794 531 
L 1825 531 
L 1825 4091 
L 703 3866 
L 703 4441 
L 1819 4666 
L 2450 4666 
L 2450 531 
L 3481 531 
L 3481 0 
L 794 0 
L 794 531 
z
" transform="scale(0.015625)"/>
       </defs>
       <use xlink:href="#DejaVuSans-30"/>
       <use xlink:href="#DejaVuSans-2e" x="63.623047"/>
       <use xlink:href="#DejaVuSans-30" x="95.410156"/>
       <use xlink:href="#DejaVuSans-30" x="159.033203"/>
       <use xlink:href="#DejaVuSans-30" x="222.65625"/>
       <use xlink:href="#DejaVuSans-31" x="286.279297"/>
       <use xlink:href="#DejaVuSans-30" x="349.902344"/>
      </g>
     </g>
    </g>
    <g id="ytick_4">
     <g id="line2d_14">
      <g>
       <use xlink:href="#m9f97d08691" x="73.02125" y="171.572081" style="stroke: #000000; stroke-width: 0.8"/>
      </g>
     </g>
     <g id="text_14">
      <!-- 0.00015 -->
      <g transform="translate(24.668125 175.371299) scale(0.1 -0.1)">
       <use xlink:href="#DejaVuSans-30"/>
       <use xlink:href="#DejaVuSans-2e" x="63.623047"/>
       <use xlink:href="#DejaVuSans-30" x="95.410156"/>
       <use xlink:href="#DejaVuSans-30" x="159.033203"/>
       <use xlink:href="#DejaVuSans-30" x="222.65625"/>
       <use xlink:href="#DejaVuSans-31" x="286.279297"/>
       <use xlink:href="#DejaVuSans-35" x="349.902344"/>
      </g>
     </g>
    </g>
    <g id="ytick_5">
     <g id="line2d_15">
      <g>
       <use xlink:href="#m9f97d08691" x="73.02125" y="136.304495" style="stroke: #000000; stroke-width: 0.8"/>
      </g>
     </g>
     <g id="text_15">
      <!-- 0.00020 -->
      <g transform="translate(24.668125 140.103714) scale(0.1 -0.1)">
       <defs>
        <path id="DejaVuSans-32" d="M 1228 531 
L 3431 531 
L 3431 0 
L 469 0 
L 469 531 
Q 828 903 1448 1529 
Q 2069 2156 2228 2338 
Q 2531 2678 2651 2914 
Q 2772 3150 2772 3378 
Q 2772 3750 2511 3984 
Q 2250 4219 1831 4219 
Q 1534 4219 1204 4116 
Q 875 4013 500 3803 
L 500 4441 
Q 881 4594 1212 4672 
Q 1544 4750 1819 4750 
Q 2544 4750 2975 4387 
Q 3406 4025 3406 3419 
Q 3406 3131 3298 2873 
Q 3191 2616 2906 2266 
Q 2828 2175 2409 1742 
Q 1991 1309 1228 531 
z
" transform="scale(0.015625)"/>
       </defs>
       <use xlink:href="#DejaVuSans-30"/>
       <use xlink:href="#DejaVuSans-2e" x="63.623047"/>
       <use xlink:href="#DejaVuSans-30" x="95.410156"/>
       <use xlink:href="#DejaVuSans-30" x="159.033203"/>
       <use xlink:href="#DejaVuSans-30" x="222.65625"/>
       <use xlink:href="#DejaVuSans-32" x="286.279297"/>
       <use xlink:href="#DejaVuSans-30" x="349.902344"/>
      </g>
     </g>
    </g>
    <g id="ytick_6">
     <g id="line2d_16">
      <g>
       <use xlink:href="#m9f97d08691" x="73.02125" y="101.036909" style="stroke: #000000; stroke-width: 0.8"/>
      </g>
     </g>
     <g id="text_16">
      <!-- 0.00025 -->
      <g transform="translate(24.668125 104.836128) scale(0.1 -0.1)">
       <use xlink:href="#DejaVuSans-30"/>
       <use xlink:href="#DejaVuSans-2e" x="63.623047"/>
       <use xlink:href="#DejaVuSans-30" x="95.410156"/>
       <use xlink:href="#DejaVuSans-30" x="159.033203"/>
       <use xlink:href="#DejaVuSans-30" x="222.65625"/>
       <use xlink:href="#DejaVuSans-32" x="286.279297"/>
       <use xlink:href="#DejaVuSans-35" x="349.902344"/>
      </g>
     </g>
    </g>
    <g id="ytick_7">
     <g id="line2d_17">
      <g>
       <use xlink:href="#m9f97d08691" x="73.02125" y="65.769324" style="stroke: #000000; stroke-width: 0.8"/>
      </g>
     </g>
     <g id="text_17">
      <!-- 0.00030 -->
      <g transform="translate(24.668125 69.568542) scale(0.1 -0.1)">
       <defs>
        <path id="DejaVuSans-33" d="M 2597 2516 
Q 3050 2419 3304 2112 
Q 3559 1806 3559 1356 
Q 3559 666 3084 287 
Q 2609 -91 1734 -91 
Q 1441 -91 1130 -33 
Q 819 25 488 141 
L 488 750 
Q 750 597 1062 519 
Q 1375 441 1716 441 
Q 2309 441 2620 675 
Q 2931 909 2931 1356 
Q 2931 1769 2642 2001 
Q 2353 2234 1838 2234 
L 1294 2234 
L 1294 2753 
L 1863 2753 
Q 2328 2753 2575 2939 
Q 2822 3125 2822 3475 
Q 2822 3834 2567 4026 
Q 2313 4219 1838 4219 
Q 1578 4219 1281 4162 
Q 984 4106 628 3988 
L 628 4550 
Q 988 4650 1302 4700 
Q 1616 4750 1894 4750 
Q 2613 4750 3031 4423 
Q 3450 4097 3450 3541 
Q 3450 3153 3228 2886 
Q 3006 2619 2597 2516 
z
" transform="scale(0.015625)"/>
       </defs>
       <use xlink:href="#DejaVuSans-30"/>
       <use xlink:href="#DejaVuSans-2e" x="63.623047"/>
       <use xlink:href="#DejaVuSans-30" x="95.410156"/>
       <use xlink:href="#DejaVuSans-30" x="159.033203"/>
       <use xlink:href="#DejaVuSans-30" x="222.65625"/>
       <use xlink:href="#DejaVuSans-33" x="286.279297"/>
       <use xlink:href="#DejaVuSans-30" x="349.902344"/>
      </g>
     </g>
    </g>
    <g id="ytick_8">
     <g id="line2d_18">
      <g>
       <use xlink:href="#m9f97d08691" x="73.02125" y="30.501738" style="stroke: #000000; stroke-width: 0.8"/>
      </g>
     </g>
     <g id="text_18">
      <!-- 0.00035 -->
      <g transform="translate(24.668125 34.300957) scale(0.1 -0.1)">
       <use xlink:href="#DejaVuSans-30"/>
       <use xlink:href="#DejaVuSans-2e" x="63.623047"/>
       <use xlink:href="#DejaVuSans-30" x="95.410156"/>
       <use xlink:href="#DejaVuSans-30" x="159.033203"/>
       <use xlink:href="#DejaVuSans-30" x="222.65625"/>
       <use xlink:href="#DejaVuSans-33" x="286.279297"/>
       <use xlink:href="#DejaVuSans-35" x="349.902344"/>
      </g>
     </g>
    </g>
    <g id="text_19">
     <!-- Valor de betweenness_centrality_digraph -->
     <g transform="translate(18.310312 255.205544) rotate(-90) scale(0.1 -0.1)">
      <defs>
       <path id="DejaVuSans-77" d="M 269 3500 
L 844 3500 
L 1563 769 
L 2278 3500 
L 2956 3500 
L 3675 769 
L 4391 3500 
L 4966 3500 
L 4050 0 
L 3372 0 
L 2619 2869 
L 1863 0 
L 1184 0 
L 269 3500 
z
" transform="scale(0.015625)"/>
       <path id="DejaVuSans-5f" d="M 3263 -1063 
L 3263 -1509 
L -63 -1509 
L -63 -1063 
L 3263 -1063 
z
" transform="scale(0.015625)"/>
       <path id="DejaVuSans-70" d="M 1159 525 
L 1159 -1331 
L 581 -1331 
L 581 3500 
L 1159 3500 
L 1159 2969 
Q 1341 3281 1617 3432 
Q 1894 3584 2278 3584 
Q 2916 3584 3314 3078 
Q 3713 2572 3713 1747 
Q 3713 922 3314 415 
Q 2916 -91 2278 -91 
Q 1894 -91 1617 61 
Q 1341 213 1159 525 
z
M 3116 1747 
Q 3116 2381 2855 2742 
Q 2594 3103 2138 3103 
Q 1681 3103 1420 2742 
Q 1159 2381 1159 1747 
Q 1159 1113 1420 752 
Q 1681 391 2138 391 
Q 2594 391 2855 752 
Q 3116 1113 3116 1747 
z
" transform="scale(0.015625)"/>
      </defs>
      <use xlink:href="#DejaVuSans-56"/>
      <use xlink:href="#DejaVuSans-61" x="60.658203"/>
      <use xlink:href="#DejaVuSans-6c" x="121.9375"/>
      <use xlink:href="#DejaVuSans-6f" x="149.720703"/>
      <use xlink:href="#DejaVuSans-72" x="210.902344"/>
      <use xlink:href="#DejaVuSans-20" x="252.015625"/>
      <use xlink:href="#DejaVuSans-64" x="283.802734"/>
      <use xlink:href="#DejaVuSans-65" x="347.279297"/>
      <use xlink:href="#DejaVuSans-20" x="408.802734"/>
      <use xlink:href="#DejaVuSans-62" x="440.589844"/>
      <use xlink:href="#DejaVuSans-65" x="504.066406"/>
      <use xlink:href="#DejaVuSans-74" x="565.589844"/>
      <use xlink:href="#DejaVuSans-77" x="604.798828"/>
      <use xlink:href="#DejaVuSans-65" x="686.585938"/>
      <use xlink:href="#DejaVuSans-65" x="748.109375"/>
      <use xlink:href="#DejaVuSans-6e" x="809.632812"/>
      <use xlink:href="#DejaVuSans-6e" x="873.011719"/>
      <use xlink:href="#DejaVuSans-65" x="936.390625"/>
      <use xlink:href="#DejaVuSans-73" x="997.914062"/>
      <use xlink:href="#DejaVuSans-73" x="1050.013672"/>
      <use xlink:href="#DejaVuSans-5f" x="1102.113281"/>
      <use xlink:href="#DejaVuSans-63" x="1152.113281"/>
      <use xlink:href="#DejaVuSans-65" x="1207.09375"/>
      <use xlink:href="#DejaVuSans-6e" x="1268.617188"/>
      <use xlink:href="#DejaVuSans-74" x="1331.996094"/>
      <use xlink:href="#DejaVuSans-72" x="1371.205078"/>
      <use xlink:href="#DejaVuSans-61" x="1412.318359"/>
      <use xlink:href="#DejaVuSans-6c" x="1473.597656"/>
      <use xlink:href="#DejaVuSans-69" x="1501.380859"/>
      <use xlink:href="#DejaVuSans-74" x="1529.164062"/>
      <use xlink:href="#DejaVuSans-79" x="1568.373047"/>
      <use xlink:href="#DejaVuSans-5f" x="1627.552734"/>
      <use xlink:href="#DejaVuSans-64" x="1677.552734"/>
      <use xlink:href="#DejaVuSans-69" x="1741.029297"/>
      <use xlink:href="#DejaVuSans-67" x="1768.8125"/>
      <use xlink:href="#DejaVuSans-72" x="1832.289062"/>
      <use xlink:href="#DejaVuSans-61" x="1873.402344"/>
      <use xlink:href="#DejaVuSans-70" x="1934.681641"/>
      <use xlink:href="#DejaVuSans-68" x="1998.158203"/>
     </g>
    </g>
   </g>
   <g id="patch_13">
    <path d="M 73.02125 277.374838 
L 73.02125 26.88 
" style="fill: none; stroke: #000000; stroke-width: 0.8; stroke-linejoin: miter; stroke-linecap: square"/>
   </g>
   <g id="patch_14">
    <path d="M 709.2 277.374838 
L 709.2 26.88 
" style="fill: none; stroke: #000000; stroke-width: 0.8; stroke-linejoin: miter; stroke-linecap: square"/>
   </g>
   <g id="patch_15">
    <path d="M 73.02125 277.374838 
L 709.2 277.374838 
" style="fill: none; stroke: #000000; stroke-width: 0.8; stroke-linejoin: miter; stroke-linecap: square"/>
   </g>
   <g id="patch_16">
    <path d="M 73.02125 26.88 
L 709.2 26.88 
" style="fill: none; stroke: #000000; stroke-width: 0.8; stroke-linejoin: miter; stroke-linecap: square"/>
   </g>
   <g id="text_20">
    <!-- Top 10 Individuos por betweenness_centrality_digraph -->
    <g transform="translate(227.843125 20.88) scale(0.12 -0.12)">
     <defs>
      <path id="DejaVuSans-49" d="M 628 4666 
L 1259 4666 
L 1259 0 
L 628 0 
L 628 4666 
z
" transform="scale(0.015625)"/>
     </defs>
     <use xlink:href="#DejaVuSans-54"/>
     <use xlink:href="#DejaVuSans-6f" x="44.083984"/>
     <use xlink:href="#DejaVuSans-70" x="105.265625"/>
     <use xlink:href="#DejaVuSans-20" x="168.742188"/>
     <use xlink:href="#DejaVuSans-31" x="200.529297"/>
     <use xlink:href="#DejaVuSans-30" x="264.152344"/>
     <use xlink:href="#DejaVuSans-20" x="327.775391"/>
     <use xlink:href="#DejaVuSans-49" x="359.5625"/>
     <use xlink:href="#DejaVuSans-6e" x="389.054688"/>
     <use xlink:href="#DejaVuSans-64" x="452.433594"/>
     <use xlink:href="#DejaVuSans-69" x="515.910156"/>
     <use xlink:href="#DejaVuSans-76" x="543.693359"/>
     <use xlink:href="#DejaVuSans-69" x="602.873047"/>
     <use xlink:href="#DejaVuSans-64" x="630.65625"/>
     <use xlink:href="#DejaVuSans-75" x="694.132812"/>
     <use xlink:href="#DejaVuSans-6f" x="757.511719"/>
     <use xlink:href="#DejaVuSans-73" x="818.693359"/>
     <use xlink:href="#DejaVuSans-20" x="870.792969"/>
     <use xlink:href="#DejaVuSans-70" x="902.580078"/>
     <use xlink:href="#DejaVuSans-6f" x="966.056641"/>
     <use xlink:href="#DejaVuSans-72" x="1027.238281"/>
     <use xlink:href="#DejaVuSans-20" x="1068.351562"/>
     <use xlink:href="#DejaVuSans-62" x="1100.138672"/>
     <use xlink:href="#DejaVuSans-65" x="1163.615234"/>
     <use xlink:href="#DejaVuSans-74" x="1225.138672"/>
     <use xlink:href="#DejaVuSans-77" x="1264.347656"/>
     <use xlink:href="#DejaVuSans-65" x="1346.134766"/>
     <use xlink:href="#DejaVuSans-65" x="1407.658203"/>
     <use xlink:href="#DejaVuSans-6e" x="1469.181641"/>
     <use xlink:href="#DejaVuSans-6e" x="1532.560547"/>
     <use xlink:href="#DejaVuSans-65" x="1595.939453"/>
     <use xlink:href="#DejaVuSans-73" x="1657.462891"/>
     <use xlink:href="#DejaVuSans-73" x="1709.5625"/>
     <use xlink:href="#DejaVuSans-5f" x="1761.662109"/>
     <use xlink:href="#DejaVuSans-63" x="1811.662109"/>
     <use xlink:href="#DejaVuSans-65" x="1866.642578"/>
     <use xlink:href="#DejaVuSans-6e" x="1928.166016"/>
     <use xlink:href="#DejaVuSans-74" x="1991.544922"/>
     <use xlink:href="#DejaVuSans-72" x="2030.753906"/>
     <use xlink:href="#DejaVuSans-61" x="2071.867188"/>
     <use xlink:href="#DejaVuSans-6c" x="2133.146484"/>
     <use xlink:href="#DejaVuSans-69" x="2160.929688"/>
     <use xlink:href="#DejaVuSans-74" x="2188.712891"/>
     <use xlink:href="#DejaVuSans-79" x="2227.921875"/>
     <use xlink:href="#DejaVuSans-5f" x="2287.101562"/>
     <use xlink:href="#DejaVuSans-64" x="2337.101562"/>
     <use xlink:href="#DejaVuSans-69" x="2400.578125"/>
     <use xlink:href="#DejaVuSans-67" x="2428.361328"/>
     <use xlink:href="#DejaVuSans-72" x="2491.837891"/>
     <use xlink:href="#DejaVuSans-61" x="2532.951172"/>
     <use xlink:href="#DejaVuSans-70" x="2594.230469"/>
     <use xlink:href="#DejaVuSans-68" x="2657.707031"/>
    </g>
   </g>
  </g>
 </g>
 <defs>
  <clipPath id="pf32d049e65">
   <rect x="73.02125" y="26.88" width="636.17875" height="250.494838"/>
  </clipPath>
 </defs>
</svg>
